<?xml version="1.0" encoding="utf-8"?>
<!-- Generator: Adobe Illustrator 18.1.1, SVG Export Plug-In . SVG Version: 6.00 Build 0)  -->
<!DOCTYPE svg PUBLIC "-//W3C//DTD SVG 1.1//EN" "http://www.w3.org/Graphics/SVG/1.1/DTD/svg11.dtd">
<svg version="1.1" id="Layer_1" xmlns="http://www.w3.org/2000/svg" xmlns:xlink="http://www.w3.org/1999/xlink" x="0px" y="0px"
	 viewBox="0 0 1200 600" enable-background="new 0 0 1200 600" xml:space="preserve">

	<g id="subSaharaAfrica">
		<rect x="683.5" y="274.2" width="135.5" height="90.6"/>
	</g>
	<g id="eastAfrica">
		<rect x="629" y="364.8" width="116.3" height="67.8"/>
	</g>
	<g id="southernAfrica">
		<rect x="655.3" y="432.6" width="117.2" height="124.2"/>
	</g>
	<g id="eastAfrica">
		<rect x="745.3" y="364.8" width="73.7" height="67.8"/>
	</g>
	<g id="westernAfrica">
		<rect x="593.2" y="364.8" width="35.9" height="67.8"/>
	</g>
	<g id="northAfrica">
		<rect x="565" y="274.2" width="118.5" height="90.6"/>
	</g>

	<g id="centralAsia">
		<rect x="853" y="78" width="291" height="106"/>
	</g>
	<g id="southEasternAsia">
		<rect x="984.3" y="184" width="173.5" height="144.5"/>
	</g>
	<g id="southernAsia">
		<rect x="664.8" y="184" width="238.2" height="90.2"/>
	</g>
	<g id="westernAsia">
		<rect x="683.5" y="58.4" width="169.5" height="125.6"/>
	</g>

	<g id="carribean">
		<rect x="280" y="274.2" width="123" height="90.6"/>
	</g>

	<g id="centralAmerica">
		<rect x="73" y="266" width="109.7" height="85.4"/>
	</g>
	<g id="northAmerica">
		<rect x="34" y="38.8" width="212.2" height="227.2"/>
	</g>
	<g id="southAmerica">
		<rect x="39" y="351.4" width="212.2" height="227.2"/>
	</g>

	<g id="oceana">
		<rect x="959" y="494.7" width="96" height="69.3"/>
		<rect x="1055" y="445" width="78" height="49.7"/>
		<rect x="1007" y="449" width="32" height="31"/>
	</g>

	<g id="easternEurope">
		<rect x="442" y="111.8" width="123" height="64.5"/>
	</g>
	<g id="westernEurope">
		<rect x="565" y="45.1" width="116.5" height="138.9"/>
	</g>

</svg>